<svg version="1.1" class="Laag_1" xmlns="http://www.w3.org/2000/svg" xmlns:xlink="http://www.w3.org/1999/          xlink"     x="0px" y="0px" viewBox="0 0 382.4 318.6" style="enable-background:new 0 0 382.4 318.6;" xml:space="preserve"><g><path class="st0" d="M62,138.8l-3-0.2l0.1-1.5c0-0.3,1.9-32.4,19.2-60.3c18.6-30,44.7-45,45-45.1l1.3-0.7l1.5,2.6l-1.3,0.7 c-0.3,0.1-25.7,14.8-43.9,44.1c-16.9,27.2-18.7,58.6-18.8,58.9L62,138.8z"></path></g><g><path class="st0" d="M320.4,138.9l-0.1-1.5c0-0.3-2-31.7-19-58.9c-18.2-29.4-43.6-43.9-43.9-44.1l-1.3-0.7l1.5-2.6l1.3,0.7 c0.3,0.1,26.3,15.1,45,45.1c17.3,27.9,19.4,60,19.4,60.4l0.1,1.5L320.4,138.9z"></path></g><g><path class="st0" d="M36.4,266.8H0v-2.1c1.2,0,2.1-0.1,2.9-0.3c0.7-0.2,1.3-0.5,1.7-0.9c0.4-0.4,0.7-1,0.8-1.8 c0.1-0.8,0.2-1.8,0.2-3v-24.4c0-1.2-0.1-2.2-0.2-3c-0.1-0.8-0.4-1.4-0.7-1.8c-0.4-0.4-0.9-0.7-1.5-0.9c-0.7-0.2-1.5-0.3-2.6-0.3v-2.1h18.2v2.1c-1.2,0-2.2,0.1-2.9,0.3c-0.7,0.2-1.3,0.5-1.7,1c-0.4,0.5-0.6,1.1-0.8,1.9c-0.1,0.8-0.2,1.9-0.2,3.2v22.1 c0,1.5,0.1,2.7,0.4,3.6c0.3,0.9,0.8,1.7,1.6,2.2c0.7,0.5,1.7,0.9,3,1.1c1.2,0.2,2.8,0.3,4.6,0.3c2,0,3.8-0.1,5.1-0.4 c1.4-0.2,2.5-0.7,3.5-1.4c0.9-0.7,1.7-1.6,2.2-2.8c0.6-1.2,1-2.7,1.4-4.5h2.1L36.4,266.8z"></path></g><g><path class="st0" d="M67.6,244.3c2.3,0,4.1-0.1,5.4-0.2c1.4-0.1,2.4-0.4,3.2-0.9c0.8-0.4,1.3-1.1,1.6-1.9c0.3-0.8,0.6-2,0.7-3.4h2 v15.5h-2c-0.2-1.4-0.5-2.5-0.8-3.4c-0.4-0.8-0.9-1.5-1.7-1.9c-0.8-0.4-1.8-0.7-3.1-0.8c-1.3-0.1-3.1-0.2-5.3-0.2v10.9 c0,1.1,0.1,2.1,0.4,2.9c0.3,0.8,0.8,1.4,1.5,1.9c0.7,0.5,1.6,0.8,2.8,1c1.2,0.2,2.6,0.3,4.3,0.3c2,0,3.7-0.1,5.1-0.4 c1.4-0.3,2.5-0.8,3.5-1.5c0.9-0.7,1.7-1.6,2.2-2.8c0.6-1.2,1-2.7,1.4-4.5H91l-0.8,12.1H54.3v-2.1c1.2,0,2.1-0.1,2.9-0.3 c0.7-0.2,1.3-0.5,1.7-0.9c0.4-0.4,0.7-1,0.8-1.8c0.1-0.8,0.2-1.8,0.2-3v-24.4c0-1.2-0.1-2.2-0.2-3c-0.1-0.8-0.4-1.4-0.7-1.8 c-0.4-0.4-0.9-0.7-1.5-0.9c-0.7-0.2-1.5-0.3-2.6-0.3v-2.1h33.4l0.4,10.4h-2.3c-0.2-1.5-0.5-2.7-1-3.7c-0.5-1-1.1-1.7-1.9-2.3 c-0.8-0.6-1.9-1-3.1-1.2c-1.3-0.2-2.9-0.3-4.7-0.3h-6c-0.9,0-1.5,0.1-1.7,0.3c-0.2,0.2-0.3,0.8-0.3,1.6V244.3z"></path></g><g>
                        <path class="st0" d="M130.4,267.3c-3.2,0-6-0.5-8.6-1.4c-2.6-0.9-4.7-2.3-6.5-4c-1.8-1.7-3.2-3.9-4.1-6.3c-1-2.5-1.5-5.3-1.5-8.4 c0-3.2,0.5-6.1,1.6-8.8c1-2.7,2.5-4.9,4.4-6.8s4.1-3.4,6.7-4.4c2.6-1,5.5-1.6,8.7-1.6c2.2,0,4.3,0.3,6.2,0.9c2,0.6,4.1,1.6,6.4,2.9 l1-3.3h1.9v13.4h-2.6c-0.7-3.3-2.1-5.9-4.3-7.7c-2.1-1.8-4.8-2.7-8-2.7c-4.1,0-7.2,1.6-9.4,4.7c-2.2,3.1-3.4,7.5-3.4,13.1 c0,5.5,1.1,9.7,3.3,12.6c2.2,2.9,5.4,4.4,9.5,4.4c3,0,5.3-0.8,7-2.3c1.7-1.5,2.5-3.7,2.5-6.4c0-1.6-0.4-2.8-1.3-3.6c-0.8-0.8-2.3-1.2-4.3-1.4V248h17.1v2.1c-1.7,0-2.9,0.4-3.6,1.1c-0.7,0.8-1,2.1-1,4.1v7c-0.8,0-1.4,0-2,0.1c-0.5,0.1-1,0.2-1.6,0.3c-0.5,0.2-1.1,0.4-1.7,0.8c-0.6,0.4-1.4,0.8-2.4,1.4C137.8,266.5,134.4,267.3,130.4,267.3z"></path></g><g><path class="st0" d="M183.1,244.3c2.3,0,4.1-0.1,5.4-0.2c1.4-0.1,2.4-0.4,3.2-0.9c0.8-0.4,1.3-1.1,1.6-1.9c0.3-0.8,0.6-2,0.7-3.4h2 v15.5h-2c-0.2-1.4-0.5-2.5-0.8-3.4c-0.4-0.8-0.9-1.5-1.7-1.9c-0.8-0.4-1.8-0.7-3.1-0.8c-1.3-0.1-3.1-0.2-5.3-0.2v10.9 c0,1.1,0.1,2.1,0.4,2.9c0.3,0.8,0.8,1.4,1.5,1.9c0.7,0.5,1.6,0.8,2.8,1c1.2,0.2,2.6,0.3,4.3,0.3c2,0,3.7-0.1,5.1-0.4
                        c1.4-0.3,2.5-0.8,3.5-1.5c0.9-0.7,1.7-1.6,2.2-2.8c0.6-1.2,1-2.7,1.4-4.5h2.1l-0.8,12.1h-35.8v-2.1c1.2,0,2.1-0.1,2.9-0.3
                        c0.7-0.2,1.3-0.5,1.7-0.9c0.4-0.4,0.7-1,0.8-1.8s0.2-1.8,0.2-3v-24.4c0-1.2-0.1-2.2-0.2-3c-0.1-0.8-0.4-1.4-0.7-1.8
                        c-0.4-0.4-0.9-0.7-1.5-0.9c-0.7-0.2-1.5-0.3-2.6-0.3v-2.1h33.4l0.4,10.4h-2.3c-0.2-1.5-0.5-2.7-1-3.7c-0.5-1-1.1-1.7-1.9-2.3
                        c-0.8-0.6-1.9-1-3.1-1.2c-1.3-0.2-2.9-0.3-4.7-0.3h-6c-0.9,0-1.5,0.1-1.7,0.3c-0.2,0.2-0.3,0.8-0.3,1.6V244.3z">
                        </path></g><g>
                        <path class="st0" d="M258.1,267.3L234.7,234h-0.2v22.7c0,1.8,0.1,3.2,0.2,4.2c0.1,1,0.4,1.8,0.8,2.4c0.4,0.6,1,0.9,1.7,1.1                                    c0.7,0.2,1.7,0.3,2.8,0.3v2.1h-15.7v-2.1c1.3,0,2.4-0.1,3.1-0.3s1.4-0.6,1.8-1.1c0.4-0.5,0.7-1.3,0.9-2.2c0.1-1,0.2-2.3,0.2-3.9
                        v-21.2c0-1.5-0.1-2.7-0.2-3.7c-0.1-1-0.4-1.7-0.8-2.3c-0.4-0.6-0.9-1-1.7-1.2c-0.7-0.2-1.7-0.4-2.9-0.4v-2.1h14.7l21.3,30.5h0.2                                        v-20.4c0-1.7-0.1-3.1-0.2-4.1c-0.1-1-0.4-1.8-0.8-2.4c-0.4-0.6-1-0.9-1.7-1.1c-0.7-0.2-1.7-0.3-2.8-0.3v-2.1h15.7v2.1
                        c-1.3,0-2.4,0.2-3.1,0.3c-0.8,0.2-1.4,0.6-1.8,1.1c-0.4,0.5-0.7,1.3-0.9,2.3c-0.1,1-0.2,2.3-0.2,3.9v31.5H258.1z">
                        </path></g><g>
                        <path class="st0" d="M288.6,266.8v-2.1c1.2,0,2.1-0.1,2.8-0.3c0.7-0.2,1.3-0.5,1.7-0.9c0.4-0.4,0.7-1,0.8-1.8
                        c0.1-0.8,0.2-1.8,0.2-3v-24.4c0-1.2-0.1-2.2-0.2-3c-0.1-0.8-0.3-1.4-0.7-1.8c-0.4-0.4-0.8-0.7-1.5-0.9c-0.6-0.2-1.4-0.3-2.4-0.3
                        v-2.1h20.1c3.4,0,6.5,0.5,9.4,1.6c2.9,1.1,5.3,2.5,7.4,4.4c2.1,1.9,3.7,4.1,4.9,6.7c1.2,2.6,1.7,5.4,1.7,8.4c0,2.9-0.5,5.5-1.6,8
                        c-1.1,2.4-2.6,4.5-4.6,6.2c-2,1.7-4.3,3.1-7,4c-2.7,1-5.7,1.5-9,1.5H288.6z M302.9,229.3c-0.6,0-0.9,0.3-0.9,0.9v27.3
                        c0,2,0.6,3.6,1.9,4.5c1.3,1,3.2,1.5,5.9,1.5c4.6,0,8.2-1.4,10.6-4.2c2.5-2.8,3.7-6.8,3.7-12.2c0-2.8-0.3-5.3-1-7.6
                        c-0.7-2.2-1.6-4.1-2.9-5.6c-1.3-1.5-2.8-2.7-4.6-3.5c-1.8-0.8-3.8-1.2-6.1-1.2H302.9z"></path></g><g>
                        <path class="st0" d="M352.6,253.3h2.1c0.5,3.3,1.8,6,4,7.9c2.2,1.9,4.9,2.9,8.1,2.9c1.3,0,2.5-0.2,3.6-0.5c1.1-0.3,2-0.8,2.8-1.3
                        c0.8-0.6,1.4-1.3,1.8-2.1c0.4-0.8,0.6-1.7,0.6-2.7c0-0.8-0.1-1.6-0.4-2.2c-0.3-0.6-0.8-1.2-1.5-1.8c-0.7-0.6-1.8-1.2-3-1.8
                        c-1.3-0.6-3-1.3-5-2.1c-4.1-1.6-7.2-3.4-9.1-5.5c-2-2.1-3-4.6-3-7.4c0-1.7,0.3-3.2,1-4.5c0.6-1.4,1.5-2.6,2.7-3.5
                        c1.1-1,2.5-1.8,4.1-2.3c1.6-0.5,3.4-0.8,5.3-0.8c1.8,0,3.5,0.3,5.1,0.8c1.6,0.6,3.2,1.4,4.7,2.5l1-2.6h1.3l0.6,11.4h-2.1
                        c-0.8-2.9-2.2-5.1-4-6.6c-1.8-1.5-3.9-2.3-6.2-2.3c-2.2,0-4,0.5-5.3,1.6c-1.4,1.1-2,2.5-2,4.1c0,0.7,0.1,1.4,0.4,2
                        c0.2,0.6,0.7,1.1,1.4,1.7s1.6,1.1,2.7,1.6c1.2,0.5,2.7,1.2,4.5,1.8c2.5,1,4.6,1.9,6.3,2.9s3.2,2,4.3,3.1c1.1,1.1,1.9,2.3,2.5,3.5
                        c0.5,1.2,0.8,2.6,0.8,4.1c0,1.8-0.4,3.4-1.2,4.9c-0.8,1.5-1.9,2.7-3.2,3.8c-1.4,1.1-3,1.9-5,2.5s-4,0.9-6.4,0.9
                        c-2.1,0-4-0.3-5.7-0.9c-1.7-0.6-3.4-1.5-5.2-2.8l-1.1,3.2h-1.3L352.6,253.3z"></path></g><g><g>
                        <path class="st0" d="M62.9,315.7H71v3h-12v-23.6h3.8V315.7z"></path></g><g>
                        <path class="st0" d="M118.4,296.3c1.8,1,3.2,2.5,4.2,4.3c1,1.8,1.5,3.9,1.5,6.2s-0.5,4.4-1.5,6.2c-1,1.8-2.4,3.3-4.2,4.3
                        c-1.8,1-3.8,1.6-5.9,1.6c-2.2,0-4.2-0.5-6-1.6c-1.8-1-3.2-2.5-4.2-4.3c-1-1.8-1.5-3.9-1.5-6.2s0.5-4.4,1.5-6.2
                        c1-1.8,2.4-3.3,4.2-4.3c1.8-1,3.8-1.5,6-1.5C114.6,294.8,116.6,295.3,118.4,296.3z M108.4,299.3c-1.2,0.7-2.1,1.7-2.8,3
                        c-0.7,1.3-1,2.8-1,4.5s0.3,3.2,1,4.5c0.7,1.3,1.6,2.3,2.8,3c1.2,0.7,2.5,1,4.1,1c1.5,0,2.8-0.3,4-1c1.2-0.7,2.1-1.7,2.7-3
                        c0.7-1.3,1-2.8,1-4.5s-0.3-3.2-1-4.5s-1.6-2.3-2.7-3c-1.2-0.7-2.5-1-4-1C110.9,298.3,109.6,298.7,108.4,299.3z">
                        </path></g><g>
                        <path class="st0" d="M159,295.1v14c0,2.1,0.5,3.7,1.4,4.7c0.9,1,2.2,1.5,3.9,1.5c1.7,0,2.9-0.5,3.9-1.5c0.9-1,1.4-2.6,1.4-4.7v-14
                        h3.8v14c0,3.2-0.8,5.7-2.5,7.3c-1.7,1.7-3.9,2.5-6.6,2.5c-2.7,0-4.9-0.8-6.6-2.5c-1.7-1.7-2.5-4.1-2.5-7.3v-14H159z">
                        </path></g><g><path class="st0" d="M224.4,318.6h-3.8l-11.5-17.4v17.4h-3.8v-23.5h3.8l11.5,17.5v-17.5h3.8V318.6z"></path></g><g></g><path class="st0" d="M274.3,296.9c1.9,1.4,3.1,3.3,3.7,5.6h-4c-0.5-1.3-1.4-2.3-2.5-3c-1.2-0.8-2.6-1.1-4.2-1.1 c-1.5,0-2.8,0.3-4,1c-1.2,0.7-2.1,1.7-2.7,2.9c-0.7,1.3-1,2.8-1,4.5c0,1.8,0.3,3.4,1,4.6c0.7,1.3,1.6,2.3,2.8,3 c1.2,0.7,2.6,1,4.2,1c2,0,3.6-0.6,5.1-1.8c1.4-1.2,2.3-2.9,2.5-5h-8.7v-2.8h11.9v3.6c-0.3,1.7-0.9,3.3-1.9,4.7
                        c-1,1.4-2.3,2.5-3.9,3.4c-1.6,0.8-3.4,1.3-5.5,1.3c-2.3,0-4.3-0.5-6.1-1.5c-1.8-1-3.1-2.4-4.1-4.3c-1-1.8-1.4-3.9-1.4-6.2 c0-2.3,0.5-4.4,1.4-6.2c1-1.8,2.3-3.2,4.1-4.2c1.8-1,3.8-1.5,6.1-1.5C270.1,294.9,272.5,295.6,274.3,296.9z">
                        </path></g><g></g><path class="st0" d="M313.6,298.1v7.1h8.7v2.9h-8.7v7.3h9.7v3.1h-13.5v-23.6h13.5v3.1H313.6z">
                        </path></g></g><g></g><g>
                        <path class="st0" d="M271.9,138.7c-0.9,4.4-2,9.9-3.3,12.6c-1.3,2.7-3.1,4.9-5.3,6.5c-2.2,1.6-4.9,2.7-8.1,3.3
                        c-3.2,0.6-7.2,0.9-12,0.9c-4.3,0-7.9-0.2-10.8-0.7c-2.9-0.5-5.2-1.3-6.9-2.5c-1.7-1.2-2.9-2.9-3.6-5.1c-0.7-2.2-1-7-1-10.5V71.5
                        c0-3.1,0.1-5.6,0.4-7.5c0.3-1.9,0.9-3.4,1.8-4.4c0.9-1.1,2.2-1.8,3.9-2.2c1.7-0.4,3.9-0.7,6.7-0.7v-3.9h-85.2v3.9
                        c2.8,0.1,5,0.3,6.7,0.7c1.7,0.4,3,1.2,3.9,2.2c0.9,1.1,1.5,2.5,1.8,4.4c0.3,1.9,0.4,4.4,0.4,7.5v71.8c0,3.5-0.3,8.3-1,10.5
                        c-0.7,2.2-1.9,3.9-3.6,5.1c-1.7,1.2-4,2-6.9,2.5c-2.9,0.4-6.5,0.7-10.7,0.7c-4.8,0-8.8-0.3-12-0.9c-3.2-0.6-5.9-1.7-8.1-3.3
                        c-2.2-1.6-3.9-3.8-5.3-6.5c-1.3-2.7-2.4-8.3-3.3-12.6h-3.9l2,28.1h165.5l2-28.1H271.9z M202.7,147.7c0,2.9-0.2,5.2-0.5,7
                        c-0.3,1.8-0.9,3.2-1.9,4.2c-0.9,1-2.2,1.7-4,2.1c-0.8,0.2-1.6,0.3-2.6,0.5c-1.8,0.2-3.6,0.2-5.4,0c-1-0.1-1.8-0.3-2.6-0.5
                        c-1.7-0.4-3-1.1-3.9-2.1c-0.9-1-1.5-2.4-1.9-4.2c-0.3-1.8-0.5-4.2-0.5-7V70.6c0-2.9,0.1-5.2,0.4-7c0.3-1.8,0.8-3.2,1.7-4.2
                        c0.8-1,2-1.7,3.5-2.1c0.6-0.1,1.3-0.3,2-0.4c2.3-0.4,4.6-0.4,6.9-0.1c1.2,0.1,2.3,0.3,3,0.5c1.5,0.4,2.7,1.1,3.5,2.1
                        c0.8,1,1.4,2.4,1.7,4.2c0.3,1.8,0.4,4.1,0.4,7V147.7z"></path></g></g> <g></g>
                        <polygon class="st0" points="191.2,19.1 183.1,24.9 186.1,15.4 178.1,9.5 188,9.5 191.2,0 194.3,9.5 204.3,9.5 196.2,15.4 199.3,24.9 	"></polygon></g><g></g>
                        <polygon class="st0" points="161.8,21.4 156.2,27.6 157,19.3 149.4,15.9 157.6,14.1 158.5,5.8 162.7,13 170.9,11.2 165.3,17.5 169.5,24.7 	"></polygon></polygon>
                                </g>
                                <g>
                                    <polygon class="st0" points="137.9,29 134.4,35.2 133.5,28.2 126.5,26.7 133,23.7 132.2,16.6 137.1,21.8 143.6,18.9 140.1,25.1
                                        144.9,30.4 	">
                                    </polygon>
                                </g>
                                <g>
                                    <polygon class="st0" points="220.5,21.4 226.1,27.6 225.3,19.3 232.9,15.9 224.8,14.1 223.9,5.8 219.6,13 211.5,11.2 217,17.5
                                        212.8,24.7 	">
                                    </polygon>
                                </g>
                                <g>
                                    <polygon class="st0" points="244.4,29 248,35.2 248.8,28.2 255.8,26.7 249.4,23.7 250.1,16.6 245.3,21.8 238.8,18.9 242.2,25.1
                                        237.4,30.4 	">
                                    </polygon>
                                </g>
                                <g>
                                    <rect y="194.9" class="st0" width="382.4" height="2.8">
                                    </rect>
                                </g>
                        </svg>
